<svg width="25" height="25" viewBox="0 0 25 25" fill="none" xmlns="http://www.w3.org/2000/svg">
<g clip-path="url(#clip0_98_618)">
<path d="M4.54442 10.7881H21.2668C21.8411 10.7881 22.3919 11.0147 22.798 11.418C23.2041 11.8214 23.4323 12.3684 23.4323 12.9388V17.4494H2.37893V12.9488C2.37761 12.6655 2.43265 12.3848 2.54088 12.1227C2.64912 11.8606 2.80841 11.6223 3.00963 11.4215C3.21085 11.2208 3.45001 11.0615 3.7134 10.9527C3.97678 10.844 4.2592 10.7881 4.54442 10.7881Z" stroke="#717171" stroke-width="1.5" stroke-miterlimit="10"/>
<path d="M5.47749 2.23538H20.3351C20.9015 2.23538 21.4446 2.45882 21.8451 2.85656C22.2456 3.2543 22.4705 3.79375 22.4705 4.35623V10.7885H3.33205V4.36619C3.33073 4.086 3.38531 3.80832 3.49266 3.54921C3.60001 3.29009 3.75799 3.05466 3.95748 2.85654C4.15697 2.65841 4.394 2.5015 4.6549 2.39489C4.9158 2.28827 5.19538 2.23406 5.47749 2.23538Z" stroke="#717171" stroke-width="1.5" stroke-miterlimit="10"/>
<path d="M10.4088 6.99512H15.4215C16.0278 6.99512 16.6092 7.2343 17.0378 7.66005C17.4665 8.0858 17.7073 8.66323 17.7073 9.26533V10.7987H8.12305V9.26533C8.12305 8.66323 8.36387 8.0858 8.79254 7.66005C9.22121 7.2343 9.80261 6.99512 10.4088 6.99512Z" stroke="#717171" stroke-width="1.5" stroke-miterlimit="10"/>
<path d="M23.4323 17.4492H2.37891V21.2528H23.4323V17.4492Z" stroke="#717171" stroke-width="1.5" stroke-miterlimit="10"/>
<path d="M3.33203 24.1008V21.2432" stroke="#717171" stroke-width="1.5" stroke-miterlimit="10"/>
<path d="M22.4805 24.1008V21.2432" stroke="#717171" stroke-width="1.5" stroke-miterlimit="10"/>
</g>
<defs>
<clipPath id="clip0_98_618">
<rect width="24.061" height="23.897" fill="white" transform="translate(0.875 0.72168)"/>
</clipPath>
</defs>
</svg>
