<svg width="25" height="25" viewBox="0 0 25 25" fill="none" xmlns="http://www.w3.org/2000/svg">
<path d="M17.3273 4.56538C19.2722 4.56538 20.8362 6.12864 20.8362 8.05036C20.8362 9.93224 19.3324 11.4656 17.4576 11.5353C17.371 11.5254 17.2836 11.5254 17.197 11.5353M19.2622 20.4967C19.984 20.3474 20.6657 20.0586 21.2272 19.6304C22.7911 18.4655 22.7911 16.5437 21.2272 15.3788C20.6758 14.9606 20.0041 14.6818 19.2923 14.5225M10.0589 11.4059C9.95862 11.3959 9.83832 11.3959 9.72804 11.4059C8.57732 11.3671 7.487 10.885 6.68796 10.0616C5.88893 9.23832 5.44392 8.13843 5.44719 6.99491C5.44719 4.55542 7.43222 2.57396 9.89847 2.57396C11.0777 2.55284 12.2171 2.99783 13.0659 3.81104C13.9148 4.62426 14.4037 5.73908 14.4249 6.91027C14.4462 8.08146 13.9982 9.21307 13.1794 10.0562C12.3606 10.8993 11.2381 11.3848 10.0589 11.4059ZM5.04617 15.0801C2.62003 16.6931 2.62003 19.3218 5.04617 20.9249C7.80316 22.757 12.3246 22.757 15.0816 20.9249C17.5077 19.3118 17.5077 16.6831 15.0816 15.0801C12.3346 13.2579 7.81318 13.2579 5.04617 15.0801Z" stroke="#717171" stroke-width="1.5" stroke-linecap="round" stroke-linejoin="round"/>
</svg>
