<svg width="25" height="25" viewBox="0 0 25 25" fill="none" xmlns="http://www.w3.org/2000/svg">
<g clip-path="url(#clip0_98_632)">
<path d="M12.9055 21.2524C14.0128 21.2524 14.9106 20.3608 14.9106 19.2609C14.9106 18.1611 14.0128 17.2695 12.9055 17.2695C11.7981 17.2695 10.9004 18.1611 10.9004 19.2609C10.9004 20.3608 11.7981 21.2524 12.9055 21.2524Z" stroke="#717171" stroke-width="1.5" stroke-miterlimit="10"/>
<path d="M8.18359 14.3424C8.80363 13.7264 9.53977 13.2378 10.35 12.9044C11.1602 12.571 12.0286 12.3994 12.9056 12.3994C13.7825 12.3994 14.6509 12.571 15.4611 12.9044C16.2713 13.2378 17.0075 13.7264 17.6275 14.3424" stroke="#717171" stroke-width="1.5" stroke-miterlimit="10"/>
<path d="M5.02539 11.2156C7.11585 9.14096 9.95014 7.97559 12.9054 7.97559C15.8606 7.97559 18.6949 9.14096 20.7853 11.2156" stroke="#717171" stroke-width="1.5" stroke-miterlimit="10"/>
<path d="M1.87695 8.08922C3.32474 6.65013 5.04388 5.50851 6.93611 4.72961C8.82835 3.95071 10.8566 3.5498 12.9049 3.5498C14.9532 3.5498 16.9814 3.95071 18.8737 4.72961C20.7659 5.50851 22.4851 6.65013 23.9328 8.08922" stroke="#717171" stroke-width="1.5" stroke-miterlimit="10"/>
</g>
<defs>
<clipPath id="clip0_98_632">
<rect width="24.061" height="23.897" fill="white" transform="translate(0.875 0.342773)"/>
</clipPath>
</defs>
</svg>
