<svg width="24" height="24" viewBox="0 0 24 24" fill="none" xmlns="http://www.w3.org/2000/svg">
<rect width="24" height="24" fill="white"/>
<path d="M2 15.2905V5.71045C2 4.38045 2.77 4.06045 3.71 5.00045L6.3 7.59045C6.69 7.98045 7.33 7.98045 7.71 7.59045L11.29 4.00045C11.3825 3.90775 11.4924 3.8342 11.6134 3.78402C11.7343 3.73384 11.864 3.70801 11.995 3.70801C12.126 3.70801 12.2557 3.73384 12.3766 3.78402C12.4976 3.8342 12.6075 3.90775 12.7 4.00045L16.29 7.59045C16.68 7.98045 17.32 7.98045 17.7 7.59045L20.29 5.00045C21.23 4.06045 22 4.38045 22 5.71045V15.3005C22 18.3005 20 20.3005 17 20.3005H7C4.24 20.2905 2 18.0505 2 15.2905Z" stroke="#717171" stroke-width="1.5" stroke-linecap="round" stroke-linejoin="round"/>
</svg>
