<svg width="24" height="24" viewBox="0 0 24 24" fill="none" xmlns="http://www.w3.org/2000/svg">
<rect width="24" height="24" fill="white"/>
<path d="M8.67 14H4C2.9 14 2 14.9 2 16V22H8.67V14Z" stroke="#717171" stroke-width="1.5" stroke-miterlimit="10" stroke-linecap="round" stroke-linejoin="round"/>
<path d="M15.3302 22H8.66016V12C8.66016 10.9 9.56016 10 10.6602 10H13.3302C13.8606 10 14.3693 10.2107 14.7444 10.5858C15.1194 10.9609 15.3302 11.4696 15.3302 12V22ZM15.3302 22V17H20.0002C21.1002 17 22.0002 17.9 22.0002 19V22H15.3302Z" stroke="#717171" stroke-width="1.5" stroke-miterlimit="10" stroke-linecap="round" stroke-linejoin="round"/>
<path d="M12.5202 2.06981L13.0502 3.12981C13.1202 3.27981 13.3102 3.41981 13.4702 3.43981L14.4302 3.59981C15.0402 3.69981 15.1902 4.14981 14.7502 4.57981L14.0002 5.32981C13.8702 5.45981 13.8002 5.69981 13.8402 5.86981L14.0502 6.78981C14.2202 7.51981 13.8302 7.79981 13.1902 7.41981L12.2902 6.88981C12.1302 6.78981 11.8602 6.78981 11.7002 6.88981L10.8002 7.41981C10.1602 7.79981 9.77023 7.51981 9.94023 6.78981L10.1502 5.86981C10.1673 5.77356 10.1617 5.67466 10.1339 5.58094C10.1062 5.48721 10.057 5.40124 9.99023 5.32981L9.25023 4.58981C8.81023 4.14981 8.95023 3.70981 9.57023 3.60981L10.5302 3.44981C10.6902 3.41981 10.8802 3.27981 10.9502 3.13981L11.4802 2.07981C11.7702 1.49981 12.2302 1.49981 12.5202 2.06981Z" stroke="#717171" stroke-width="1.5" stroke-linecap="round" stroke-linejoin="round"/>
</svg>
