<svg width="25" height="25" viewBox="0 0 25 25" fill="none" xmlns="http://www.w3.org/2000/svg">
<g clip-path="url(#clip0_98_638)">
<path d="M2.631 14.2234H21.8397V15.2191C21.8397 16.7376 21.2323 18.1938 20.1513 19.2675C19.0702 20.3412 17.6039 20.9445 16.0751 20.9445H8.3956C7.6352 20.9445 6.8823 20.7951 6.18028 20.5049C5.47826 20.2146 4.84099 19.7894 4.30517 19.2535C3.76935 18.7176 3.34557 18.0818 3.05824 17.3825C2.77091 16.6833 2.62571 15.9345 2.631 15.1793V14.1836V14.2234Z" stroke="#717171" stroke-width="1.5" stroke-miterlimit="10"/>
<path d="M4.54688 23.762V22.8061L6.47175 20.9043" stroke="#717171" stroke-width="1.5" stroke-miterlimit="10"/>
<path d="M19.9249 23.762V22.8061L18 20.9043" stroke="#717171" stroke-width="1.5" stroke-miterlimit="10"/>
<path d="M2.63086 14.2229V4.19617C2.63086 3.56502 2.8833 2.95973 3.33265 2.51344C3.782 2.06715 4.39145 1.81643 5.02693 1.81643C5.34243 1.81512 5.65508 1.8757 5.94695 1.99471C6.23881 2.11371 6.50413 2.2888 6.72769 2.50991C6.95125 2.73102 7.12864 2.9938 7.24968 3.28318C7.37072 3.57255 7.43303 3.88282 7.43303 4.19617V5.62999" stroke="#717171" stroke-width="1.5" stroke-miterlimit="10"/>
<path d="M5.50781 5.62988H9.35757" stroke="#717171" stroke-width="1.5" stroke-miterlimit="10"/>
<path d="M0.707031 14.2227H23.7655" stroke="#717171" stroke-width="1.5" stroke-miterlimit="10"/>
</g>
<defs>
<clipPath id="clip0_98_638">
<rect width="24.061" height="23.897" fill="white" transform="translate(0.205078 0.342773)"/>
</clipPath>
</defs>
</svg>
