<svg width="25" height="25" viewBox="0 0 25 25" fill="none" xmlns="http://www.w3.org/2000/svg">
<g clip-path="url(#clip0_98_648)">
<path d="M19.8276 4.08639C19.8303 3.84496 19.7848 3.60539 19.6939 3.38146C19.603 3.15753 19.4685 2.95364 19.298 2.78153C19.1275 2.60942 18.9244 2.47248 18.7005 2.37858C18.4765 2.28468 18.2361 2.23567 17.993 2.23438C17.7499 2.23567 17.5094 2.28468 17.2855 2.37858C17.0615 2.47248 16.8584 2.60942 16.6879 2.78153C16.5174 2.95364 16.3829 3.15753 16.292 3.38146C16.2011 3.60539 16.1557 3.84496 16.1583 4.08639V16.8315" stroke="#717171" stroke-width="1.5" stroke-miterlimit="10"/>
<path d="M12.4801 4.08639C12.4828 3.84496 12.4373 3.60539 12.3465 3.38146C12.2556 3.15753 12.121 2.95364 11.9505 2.78153C11.78 2.60942 11.5769 2.47248 11.353 2.37858C11.129 2.28468 10.8886 2.23567 10.6455 2.23438C10.4019 2.23568 10.161 2.28462 9.93648 2.3784C9.71196 2.47218 9.50824 2.60896 9.33694 2.78093C9.16565 2.95291 9.03013 3.15671 8.93815 3.3807C8.84616 3.6047 8.79949 3.84449 8.80081 4.08639V16.8315" stroke="#717171" stroke-width="1.5" stroke-miterlimit="10"/>
<path d="M8.80078 6.79492H16.1594" stroke="#717171" stroke-width="1.5" stroke-miterlimit="10"/>
<path d="M8.80078 11.3555H16.1594" stroke="#717171" stroke-width="1.5" stroke-miterlimit="10"/>
<path d="M1.45117 5.87891H6.04281" stroke="#717171" stroke-width="1.5" stroke-miterlimit="10"/>
<path d="M18.916 5.87891H23.5076" stroke="#717171" stroke-width="1.5" stroke-miterlimit="10"/>
<path d="M1.45117 15.0098C1.77249 15.4344 2.18884 15.779 2.66733 16.0163C3.14582 16.2537 3.67332 16.3772 4.20816 16.3772C4.74299 16.3772 5.2705 16.2537 5.74899 16.0163C6.22747 15.779 6.64383 15.4344 6.96514 15.0098C7.28541 15.4343 7.70085 15.7789 8.17853 16.0163C8.65621 16.2536 9.18299 16.3772 9.71711 16.3772C10.2512 16.3772 10.778 16.2536 11.2557 16.0163C11.7334 15.7789 12.1488 15.4343 12.4691 15.0098C12.7881 15.4361 13.2031 15.7824 13.681 16.021C14.1588 16.2596 14.6862 16.3839 15.2211 16.3839C15.7559 16.3839 16.2833 16.2596 16.7612 16.021C17.239 15.7824 17.654 15.4361 17.973 15.0098C18.2933 15.4343 18.7087 15.7789 19.1864 16.0163C19.6641 16.2536 20.1909 16.3772 20.725 16.3772C21.2591 16.3772 21.7859 16.2536 22.2636 16.0163C22.7413 15.7789 23.1567 15.4343 23.477 15.0098" stroke="#717171" stroke-width="1.5" stroke-miterlimit="10"/>
<path d="M1.45117 20.4863C1.77249 20.911 2.18884 21.2556 2.66733 21.4929C3.14582 21.7302 3.67332 21.8538 4.20816 21.8538C4.74299 21.8538 5.2705 21.7302 5.74899 21.4929C6.22747 21.2556 6.64383 20.911 6.96514 20.4863C7.28541 20.9109 7.70085 21.2555 8.17853 21.4928C8.65621 21.7302 9.18299 21.8538 9.71711 21.8538C10.2512 21.8538 10.778 21.7302 11.2557 21.4928C11.7334 21.2555 12.1488 20.9109 12.4691 20.4863C12.7881 20.9127 13.2031 21.259 13.681 21.4976C14.1588 21.7362 14.6862 21.8605 15.2211 21.8605C15.7559 21.8605 16.2833 21.7362 16.7612 21.4976C17.239 21.259 17.654 20.9127 17.973 20.4863C18.2933 20.9109 18.7087 21.2555 19.1864 21.4928C19.6641 21.7302 20.1909 21.8538 20.725 21.8538C21.2591 21.8538 21.7859 21.7302 22.2636 21.4928C22.7413 21.2555 23.1567 20.9109 23.477 20.4863" stroke="#717171" stroke-width="1.5" stroke-miterlimit="10"/>
</g>
<defs>
<clipPath id="clip0_98_648">
<rect width="24.061" height="23.897" fill="white" transform="translate(0.449219 0.342773)"/>
</clipPath>
</defs>
</svg>
