<svg width="24" height="24" viewBox="0 0 24 24" fill="none" xmlns="http://www.w3.org/2000/svg">
<rect width="24" height="24" fill="white"/>
<path d="M5.5 4V2.25M9.5 4V2.25M13.5 4V2.25M2 12H17.51M17.79 10.47V17.79C17.79 18.9066 17.3464 19.9774 16.5569 20.7669C15.7674 21.5564 14.6966 22 13.58 22H6.21C3.89 22 2 20.11 2 17.79V10.47C2 9.35344 2.44355 8.28261 3.23308 7.49308C4.02261 6.70355 5.09344 6.26 6.21 6.26H13.58C15.9 6.26 17.79 8.15 17.79 10.47ZM22 13.16C22 15.48 20.11 17.37 17.79 17.37V8.95C18.3429 8.95 18.8903 9.05889 19.4011 9.27047C19.9119 9.48204 20.376 9.79215 20.7669 10.1831C21.1579 10.574 21.468 11.0381 21.6795 11.5489C21.8911 12.0597 22 12.6071 22 13.16Z" stroke="#717171" stroke-width="1.5" stroke-linecap="round" stroke-linejoin="round"/>
</svg>
